# xmcd CD database file
#
# Track frame offsets:
#	150
#	11580
#	28477
#	40347
#	58000
#	72092
#	96640
#	116417
#	128502
#	140825
#	155045
#	169097
#
# Disc length: 2538 seconds
#
# Revision: 2
# Processed by: cddbd v1.4PL0 Copyright (c) Steve Scherf et al.
# Submitted via: CDex 1.40Beta9
#
DISCID=ae09e80c
DTITLE=*L$l2 - - $@-S$H
DYEAR=1900
DGENRE=
TTITLE0=$@-S$H
TTITLE1=&b$t$$%!
TTITLE2=&Q$H*e
TTITLE3=%<:b+Y?y
TTITLE4=5e.a
TTITLE5=&o*:An-5
TTITLE6=)p&b&s$h
TTITLE7=$#-nBw%h
TTITLE8=0u(lD_
TTITLE9=,|&n*:$@(h
TTITLE10=B`!AB`!AB`
TTITLE11=$H%M$':q
EXTD=
EXTT0=
EXTT1=
EXTT2=
EXTT3=
EXTT4=
EXTT5=
EXTT6=
EXTT7=
EXTT8=
EXTT9=
EXTT10=
EXTT11=
PLAYORDER=
